<?xml version="1.0" encoding="UTF-8" standalone="no"?><!-- Generator: Gravit.io --><svg xmlns="http://www.w3.org/2000/svg" xmlns:xlink="http://www.w3.org/1999/xlink" style="isolation:isolate" viewBox="719.145 242.501 423.709 511.998" width="423.709pt" height="511.998pt"><path d=" M 797.129 282.22 C 795.981 282.22 774.063 367.936 773.004 367.76 C 751.641 407.659 744.314 478.106 754.465 533.809 C 758.612 557.471 767.177 580.141 779.711 600.634 C 786.157 585.626 805.931 662.694 822.879 647.775 L 1039.16 647.775 C 1056.105 662.694 1075.882 585.626 1082.325 600.634 C 1094.86 580.142 1103.425 557.472 1107.571 533.809 C 1117.723 478.106 1110.399 407.659 1089.036 367.76 C 1087.977 367.936 1041.781 284.428 1040.632 284.428 L 797.129 282.22 Z " fill="rgb(128,45,64)"/><path d=" M 931.018 551.376 L 996.124 712.57 L 931.018 724.152 C 878.845 724.062 821.731 654.924 788.54 600.634 C 796.247 581.696 807.962 564.65 822.88 550.669 C 831.221 543.189 840.975 537.457 851.568 533.808 C 902.771 516.77 929.167 549.169 931.019 551.376 L 931.018 551.376 Z " fill="rgb(251,123,118)"/><path d=" M 1073.496 600.634 C 1043.426 650.94 989.694 682.35 931.108 683.881 L 931.018 683.881 L 931.018 551.376 C 932.874 549.169 959.268 516.77 1010.469 533.809 C 1021.062 537.458 1030.817 543.19 1039.159 550.67 C 1054.078 564.65 1065.792 581.696 1073.496 600.634 L 1073.496 600.634 Z " fill="rgb(255,83,100)"/><path d=" M 1039.16 550.669 C 1030.818 543.189 1021.062 537.456 1010.468 533.808 C 959.268 516.77 932.874 549.169 931.018 551.376 C 929.167 549.169 902.771 516.77 851.568 533.809 C 840.975 537.457 831.22 543.19 822.879 550.67 C 817.501 518.568 828.223 485.87 851.568 463.188 C 895.708 419.05 931.019 454.358 913.366 472.016 C 895.709 489.672 904.537 516.066 930.932 516.152 L 931.108 516.152 C 957.503 516.066 966.331 489.672 948.674 472.016 C 931.017 454.359 966.331 419.05 1010.468 463.188 C 1033.811 485.871 1044.535 518.566 1039.16 550.669 L 1039.16 550.669 Z " fill="rgb(44,47,56)"/><path d=" M 1041.808 340.307 C 1038.776 343.402 1037.04 347.538 1036.953 351.869 L 1036.953 355.576 C 1035.449 349.045 1029.007 341.716 1013.648 341.716 C 1006.178 341.593 998.849 343.749 992.635 347.896 C 987.499 351.168 984.272 356.731 983.983 362.814 L 983.983 358.58 C 983.983 350.72 978.069 339.6 960.417 339.6 C 952.908 339.482 945.585 341.943 939.671 346.572 C 934.361 350.536 931.17 356.722 931.018 363.346 C 930.865 356.723 927.676 350.538 922.37 346.572 C 916.455 341.944 909.133 339.483 901.623 339.6 C 883.966 339.6 878.053 350.72 878.053 358.58 L 878.053 362.814 C 877.767 356.73 874.539 351.166 869.4 347.897 C 863.188 343.75 855.86 341.594 848.392 341.717 C 833.032 341.717 826.588 349.045 825.088 355.577 L 825.088 347.631 C 825.034 344.529 823.982 341.526 822.087 339.068 L 823.145 338.275 L 823.321 338.275 C 831.269 332.5 839.718 327.448 848.568 323.182 C 848.658 323.182 848.658 323.092 848.744 323.092 C 900.729 298.021 961.308 298.021 1013.293 323.092 C 1013.383 323.092 1013.383 323.182 1013.468 323.182 C 1022.319 327.447 1030.77 332.499 1038.718 338.275 L 1038.894 338.275 C 1039.863 338.982 1040.836 339.69 1041.808 340.307 L 1041.808 340.307 Z " fill="rgb(251,123,118)"/><g><path d=" M 931.018 354.518 L 931.018 383.03 C 930.346 388.874 925.131 393.108 919.28 392.566 L 889.795 392.566 C 883.939 393.108 878.725 388.874 878.052 383.03 L 878.052 349.752 C 878.052 341.892 883.966 330.772 901.622 330.772 C 909.132 330.655 916.455 333.115 922.37 337.744 C 927.676 341.711 930.864 347.895 931.018 354.518 L 931.018 354.518 Z  M 878.052 353.986 L 878.052 378.265 C 878.052 383.562 872.048 387.8 864.724 387.8 L 838.064 387.8 C 830.65 387.8 824.735 383.562 824.735 378.265 L 824.735 369.526 C 824.978 368.845 825.098 368.127 825.088 367.405 L 825.088 346.748 C 826.588 340.217 833.033 332.888 848.392 332.888 C 855.86 332.767 863.187 334.923 869.4 339.068 C 874.539 342.337 877.767 347.902 878.052 353.986 L 878.052 353.986 Z  M 983.983 349.752 L 983.983 383.03 C 983.315 388.874 978.1 393.108 972.245 392.566 L 942.76 392.566 C 936.905 393.108 931.69 388.874 931.018 383.03 L 931.018 354.518 C 931.171 347.894 934.362 341.709 939.671 337.744 C 945.585 333.115 952.908 330.654 960.417 330.772 C 978.069 330.772 983.983 341.892 983.983 349.752 Z  M 1037.304 369.526 L 1037.304 378.265 C 1037.304 383.562 1031.39 387.8 1023.976 387.8 L 997.316 387.8 C 989.987 387.8 983.983 383.562 983.983 378.265 L 983.983 353.986 C 984.272 347.903 987.499 342.34 992.635 339.068 C 998.85 334.923 1006.179 332.767 1013.648 332.888 C 1029.008 332.888 1035.448 340.217 1036.953 346.748 L 1036.953 367.404 C 1036.938 368.127 1037.057 368.846 1037.304 369.526 L 1037.304 369.526 Z " fill="rgb(250,193,118)"/></g><path d=" M 1069.172 276.747 C 1004.64 212.481 931.018 258.384 931.018 258.384 C 931.018 258.384 857.397 212.481 792.864 276.747 C 709.531 359.99 700.793 515.625 746.876 635.065 C 792.954 754.499 931.018 754.499 931.018 754.499 C 931.018 754.499 1069.172 754.499 1115.165 635.065 C 1161.157 515.625 1152.505 359.991 1069.172 276.747 L 1069.172 276.747 Z  M 1098.747 533.809 C 1094.598 557.471 1086.032 580.141 1073.496 600.634 C 1043.426 650.94 989.694 682.35 931.108 683.881 L 930.932 683.881 C 872.341 682.35 818.61 650.94 788.54 600.634 C 776.006 580.141 767.441 557.471 763.294 533.809 C 753.141 478.106 760.469 425.316 781.833 385.418 C 788.321 373.109 796.524 361.785 806.196 351.783 L 806.637 351.342 L 806.813 351.162 C 811.63 346.795 816.732 342.755 822.087 339.068 L 823.145 338.275 L 823.321 338.275 C 831.269 332.5 839.718 327.448 848.568 323.182 C 848.658 323.182 848.658 323.092 848.744 323.092 C 900.729 298.021 961.308 298.021 1013.293 323.092 C 1013.383 323.092 1013.383 323.182 1013.468 323.182 C 1022.319 327.447 1030.77 332.499 1038.718 338.275 L 1038.894 338.275 C 1039.863 338.982 1040.836 339.69 1041.808 340.307 C 1046.468 343.688 1050.947 347.311 1055.226 351.162 L 1055.402 351.342 L 1055.843 351.783 C 1065.514 361.786 1073.717 373.11 1080.207 385.417 C 1101.571 425.316 1108.895 478.106 1098.747 533.808 L 1098.747 533.809 Z " fill="rgb(223,77,96)"/><path d=" M 931.018 363.346 L 931.018 391.858 C 930.346 397.702 925.131 401.937 919.28 401.394 L 889.795 401.394 C 883.939 401.937 878.725 397.702 878.052 391.858 L 878.052 358.58 C 878.052 350.72 883.966 339.6 901.622 339.6 C 909.132 339.483 916.455 341.944 922.37 346.572 C 927.676 350.538 930.865 356.723 931.018 363.346 L 931.018 363.346 Z  M 878.052 362.815 L 878.052 387.093 C 878.052 392.39 872.048 396.628 864.724 396.628 L 838.064 396.628 C 830.65 396.628 824.735 392.39 824.735 387.093 L 824.735 378.355 C 824.978 377.675 825.098 376.956 825.088 376.233 L 825.088 355.576 C 826.588 349.045 833.033 341.716 848.392 341.716 C 855.86 341.593 863.188 343.749 869.4 347.896 C 874.539 351.165 877.767 356.73 878.052 362.814 L 878.052 362.815 Z  M 983.983 358.58 L 983.983 391.858 C 983.315 397.702 978.1 401.937 972.245 401.394 L 942.76 401.394 C 936.905 401.937 931.69 397.702 931.018 391.858 L 931.018 363.346 C 931.17 356.722 934.361 350.536 939.671 346.572 C 945.585 341.943 952.908 339.482 960.417 339.6 C 978.069 339.6 983.983 350.72 983.983 358.58 L 983.983 358.58 Z  M 1037.304 378.355 L 1037.304 387.093 C 1037.304 392.39 1031.39 396.628 1023.976 396.628 L 997.316 396.628 C 989.987 396.628 983.983 392.39 983.983 387.093 L 983.983 362.814 C 984.272 356.732 987.499 351.169 992.635 347.897 C 998.849 343.75 1006.178 341.594 1013.648 341.717 C 1029.008 341.717 1035.448 349.045 1036.953 355.577 L 1036.953 376.233 C 1036.938 376.956 1037.057 377.675 1037.304 378.355 L 1037.304 378.355 Z " fill="rgb(245,239,202)"/><path d=" M 1080.207 385.417 C 1079.129 385.597 1078.035 385.683 1076.941 385.679 L 1050.281 385.679 C 1044.857 386.158 1039.697 383.246 1037.304 378.355 L 1037.304 358.58 C 1037.312 357.568 1037.195 356.56 1036.953 355.576 L 1036.953 351.869 C 1037.04 347.538 1038.776 343.402 1041.808 340.307 C 1046.468 343.688 1050.947 347.311 1055.226 351.162 L 1055.402 351.342 L 1055.843 351.783 C 1065.514 361.786 1073.717 373.11 1080.207 385.417 L 1080.207 385.417 Z  M 825.088 347.631 L 825.088 355.576 C 824.844 356.559 824.726 357.568 824.735 358.58 L 824.735 378.355 C 822.342 383.246 817.183 386.157 811.758 385.679 L 785.099 385.679 C 784.005 385.683 782.913 385.596 781.834 385.417 C 788.322 373.109 796.525 361.784 806.197 351.783 L 806.638 351.342 L 806.814 351.162 C 811.631 346.795 816.733 342.755 822.088 339.068 C 823.983 341.526 825.035 344.529 825.089 347.631 L 825.088 347.631 Z " fill="rgb(249,234,176)"/><path d=" M 939.846 657.396 C 934.971 657.395 931.019 653.444 931.018 648.569 C 931.018 640.236 913.514 639.74 913.366 639.74 C 908.485 639.74 904.537 635.787 904.537 630.912 C 904.537 626.037 908.486 622.087 913.366 622.087 C 925.573 622.087 948.674 627.619 948.674 648.568 C 948.674 653.444 944.722 657.396 939.846 657.397 L 939.846 657.396 Z " fill="rgb(255,83,100)"/><path d=" M 922.191 613.259 C 917.315 613.259 913.366 609.306 913.366 604.431 C 913.366 583.481 936.467 577.946 948.674 577.946 C 953.513 577.997 957.409 581.935 957.409 586.775 C 957.409 591.614 953.513 595.552 948.674 595.603 C 948.339 595.603 931.018 596.133 931.018 604.431 C 931.017 609.307 927.065 613.259 922.19 613.259 L 922.191 613.259 Z " fill="rgb(251,123,118)"/></svg>