<?xml version="1.0" encoding="UTF-8" standalone="no"?><svg xmlns="http://www.w3.org/2000/svg" version="1.1" xmlns:xlink="http://www.w3.org/1999/xlink" width="512" height="512" x="0" y="0" viewBox="0 0 511 511.994" style="enable-background:new 0 0 512 512" xml:space="preserve" class=""><g><path fill="#802d40" d="M78.48 39.719c-1.148 0-23.066 85.715-24.125 85.539-21.363 39.898-28.69 110.344-18.539 166.047a191.41 191.41 0 0 0 25.246 66.824c6.446-15.008 26.22 62.059 43.168 47.14h216.278c16.945 14.919 36.722-62.148 43.164-47.14a191.334 191.334 0 0 0 25.246-66.824c10.152-55.703 2.828-126.149-18.535-166.047-1.059.176-47.254-83.332-48.403-83.332zm0 0" opacity="1" data-original="#802d40" class=""></path><path fill="#fb7b76" d="m212.367 308.871 65.106 161.192-65.106 11.582c-52.172-.09-109.285-69.227-142.476-123.516a141.661 141.661 0 0 1 34.34-49.965 83.887 83.887 0 0 1 28.687-16.86c51.203-17.038 77.598 15.36 79.45 17.567zm0 0" opacity="1" data-original="#fb7b76"></path><path fill="#ff5364" d="M354.844 358.129c-30.07 50.305-83.801 81.715-142.387 83.246h-.09V308.871c1.856-2.207 28.25-34.605 79.45-17.566a83.904 83.904 0 0 1 28.69 16.86 141.6 141.6 0 0 1 34.337 49.964zm0 0" opacity="1" data-original="#ff5364"></path><path fill="#2c2f38" d="M320.508 308.164a83.904 83.904 0 0 0-28.692-16.86c-51.199-17.038-77.593 15.36-79.449 17.567-1.851-2.207-28.246-34.605-79.449-17.566a83.887 83.887 0 0 0-28.688 16.86 99.135 99.135 0 0 1 28.688-87.481c44.14-44.137 79.45-8.829 61.797 8.828-17.656 17.656-8.828 44.05 17.566 44.136h.176c26.395-.086 35.223-26.48 17.566-44.136s17.657-52.965 61.793-8.828a99.148 99.148 0 0 1 28.692 87.48zm0 0" opacity="1" data-original="#2c2f38"></path><path fill="#fb7b76" d="M323.156 97.805a17.007 17.007 0 0 0-4.855 11.562v3.707c-1.504-6.531-7.946-13.86-23.305-13.86a36.758 36.758 0 0 0-21.012 6.18 18.74 18.74 0 0 0-8.652 14.918v-4.234c0-7.86-5.914-18.98-23.566-18.98a32.824 32.824 0 0 0-20.746 6.972 21.553 21.553 0 0 0-8.653 16.774 21.56 21.56 0 0 0-8.648-16.774 32.832 32.832 0 0 0-20.746-6.972c-17.657 0-23.57 11.12-23.57 18.98v4.234a18.72 18.72 0 0 0-8.653-14.917 36.746 36.746 0 0 0-21.008-6.18c-15.36 0-21.804 7.328-23.304 13.86v-7.946a14.44 14.44 0 0 0-3-8.563l1.058-.793h.176a164.327 164.327 0 0 1 25.246-15.093c.09 0 .09-.09.176-.09a189.4 189.4 0 0 1 164.547 0c.09 0 .09.09.175.09a164.178 164.178 0 0 1 25.25 15.093h.176c.969.707 1.942 1.415 2.914 2.032zm0 0" opacity="1" data-original="#fb7b76"></path><g fill="#fac176"><path d="M212.367 112.016v28.511c-.672 5.844-5.887 10.078-11.738 9.536h-29.484c-5.856.542-11.07-3.692-11.743-9.536V107.25c0-7.86 5.914-18.98 23.57-18.98a32.832 32.832 0 0 1 20.747 6.972 21.566 21.566 0 0 1 8.648 16.774zM159.402 111.484v24.278c0 5.297-6.004 9.535-13.328 9.535h-26.66c-7.414 0-13.328-4.238-13.328-9.535v-8.739c.242-.68.363-1.398.352-2.12v-20.657c1.5-6.531 7.945-13.86 23.304-13.86a36.775 36.775 0 0 1 21.008 6.18 18.72 18.72 0 0 1 8.652 14.918zM265.332 107.25v33.277c-.668 5.844-5.883 10.078-11.738 9.536h-29.485c-5.855.542-11.07-3.692-11.742-9.536v-28.511a21.559 21.559 0 0 1 8.653-16.774 32.824 32.824 0 0 1 20.746-6.972c17.652 0 23.566 11.12 23.566 18.98zM318.652 127.023v8.739c0 5.297-5.914 9.535-13.328 9.535h-26.66c-7.328 0-13.332-4.238-13.332-9.535v-24.278a18.74 18.74 0 0 1 8.652-14.918 36.788 36.788 0 0 1 21.012-6.18c15.36 0 21.8 7.329 23.305 13.86v20.656a5.86 5.86 0 0 0 .351 2.121zm0 0" fill="#fac176" opacity="1" data-original="#fac176"></path></g><path fill="#df4d60" d="M350.52 34.246C285.988-30.02 212.367 15.883 212.367 15.883S138.747-30.02 74.215 34.246c-83.332 83.242-92.07 238.875-45.988 358.313 46.078 119.433 184.14 119.433 184.14 119.433s138.153 0 184.145-119.433c45.992-119.438 37.34-275.07-45.992-358.313zm29.574 257.059a191.418 191.418 0 0 1-25.25 66.824c-30.07 50.305-83.801 81.715-142.387 83.246h-.176c-58.59-1.531-112.32-32.941-142.39-83.246a191.41 191.41 0 0 1-25.246-66.824c-10.153-55.703-2.825-108.492 18.539-148.39a146.93 146.93 0 0 1 24.363-33.634l.441-.441.176-.18a145.998 145.998 0 0 1 15.274-12.094l1.058-.793h.176a164.327 164.327 0 0 1 25.246-15.093c.09 0 .09-.09.176-.09a189.4 189.4 0 0 1 164.547 0c.09 0 .09.09.175.09a164.178 164.178 0 0 1 25.25 15.093h.176c.969.707 1.942 1.415 2.914 2.032a164.026 164.026 0 0 1 13.418 10.855l.176.18.441.441a147.165 147.165 0 0 1 24.364 33.633c21.363 39.899 28.687 92.688 18.539 148.39zm0 0" opacity="1" data-original="#df4d60" class=""></path><path fill="#f5efca" d="M212.367 120.844v28.511c-.672 5.844-5.887 10.079-11.738 9.536h-29.484c-5.856.543-11.07-3.692-11.743-9.536v-33.277c0-7.86 5.914-18.98 23.57-18.98a32.832 32.832 0 0 1 20.747 6.972 21.56 21.56 0 0 1 8.648 16.774zM159.402 120.313v24.277c0 5.297-6.004 9.535-13.328 9.535h-26.66c-7.414 0-13.328-4.238-13.328-9.535v-8.738c.242-.68.363-1.399.352-2.122v-20.656c1.5-6.531 7.945-13.86 23.304-13.86a36.746 36.746 0 0 1 21.008 6.18 18.72 18.72 0 0 1 8.652 14.918zM265.332 116.078v33.277c-.668 5.844-5.883 10.079-11.738 9.536h-29.485c-5.855.543-11.07-3.692-11.742-9.536v-28.511a21.553 21.553 0 0 1 8.653-16.774 32.824 32.824 0 0 1 20.746-6.972c17.652 0 23.566 11.12 23.566 18.98zM318.652 135.852v8.738c0 5.297-5.914 9.535-13.328 9.535h-26.66c-7.328 0-13.332-4.238-13.332-9.535v-24.278a18.74 18.74 0 0 1 8.652-14.917 36.758 36.758 0 0 1 21.012-6.18c15.36 0 21.8 7.328 23.305 13.86v20.655a5.86 5.86 0 0 0 .351 2.122zm0 0" opacity="1" data-original="#f5efca"></path><path fill="#f9eab0" d="M361.555 142.914c-1.078.18-2.172.266-3.266.262h-26.66a13.157 13.157 0 0 1-12.977-7.324v-19.774c.008-1.012-.109-2.02-.351-3.004v-3.707a17.007 17.007 0 0 1 4.855-11.562 164.026 164.026 0 0 1 13.418 10.855l.176.18.441.441a147.165 147.165 0 0 1 24.364 33.633zM106.438 105.129v7.945a11.988 11.988 0 0 0-.352 3.004v19.774a13.16 13.16 0 0 1-12.977 7.324H66.45a19.451 19.451 0 0 1-3.265-.262 146.93 146.93 0 0 1 24.363-33.633l.441-.441.176-.18a145.998 145.998 0 0 1 15.274-12.094 14.44 14.44 0 0 1 3 8.563zm0 0" opacity="1" data-original="#f9eab0"></path><path fill="#ff5364" d="M221.195 414.89a8.829 8.829 0 0 1-8.828-8.827c0-8.333-17.504-8.829-17.652-8.829-4.88 0-8.828-3.953-8.828-8.828s3.949-8.824 8.828-8.824c12.207 0 35.308 5.531 35.308 26.48a8.829 8.829 0 0 1-8.828 8.829zm0 0" opacity="1" data-original="#ff5364"></path><path fill="#fb7b76" d="M203.54 370.754c-4.876 0-8.825-3.953-8.825-8.828 0-20.95 23.101-26.485 35.308-26.485a8.829 8.829 0 0 1 0 17.657c-.335 0-17.656.53-17.656 8.828a8.829 8.829 0 0 1-8.828 8.828zm0 0" opacity="1" data-original="#fb7b76"></path></g></svg>
