<?xml version="1.0" encoding="UTF-8" standalone="no"?><!-- Generator: Gravit.io --><svg xmlns="http://www.w3.org/2000/svg" xmlns:xlink="http://www.w3.org/1999/xlink" style="isolation:isolate" viewBox="0 0 160 24" width="160pt" height="24pt"><g><path d=" M 3.656 1.862 C 3.602 1.862 2.574 5.88 2.525 5.872 C 1.523 7.742 1.18 11.044 1.656 13.655 C 1.85 14.764 2.251 15.827 2.839 16.788 C 3.141 16.084 4.068 19.697 4.863 18.997 L 15.001 18.997 C 15.795 19.697 16.722 16.084 17.024 16.788 C 17.612 15.827 18.013 14.764 18.208 13.655 C 18.683 11.044 18.34 7.742 17.339 5.872 C 17.289 5.88 15.124 1.965 15.07 1.965 L 3.656 1.862 Z " fill="rgb(128,45,64)"/><path d=" M 9.932 14.479 L 12.983 22.035 L 9.932 22.577 C 7.486 22.573 4.809 19.332 3.253 16.788 C 3.614 15.9 4.163 15.101 4.863 14.445 C 5.254 14.095 5.711 13.826 6.207 13.655 C 8.607 12.856 9.845 14.375 9.932 14.479 L 9.932 14.479 Z " fill="rgb(251,123,118)"/><path d=" M 16.61 16.788 C 15.201 19.146 12.682 20.618 9.936 20.69 L 9.932 20.69 L 9.932 14.479 C 10.019 14.375 11.256 12.856 13.656 13.655 C 14.152 13.826 14.61 14.095 15.001 14.445 C 15.7 15.101 16.249 15.9 16.61 16.788 L 16.61 16.788 Z " fill="rgb(255,83,100)"/><path d=" M 15.001 14.445 C 14.61 14.095 14.152 13.826 13.656 13.655 C 11.256 12.856 10.019 14.375 9.932 14.479 C 9.845 14.375 8.607 12.856 6.207 13.655 C 5.711 13.826 5.254 14.095 4.863 14.445 C 4.61 12.941 5.113 11.408 6.207 10.345 C 8.276 8.276 9.932 9.931 9.104 10.759 C 8.276 11.586 8.69 12.823 9.928 12.827 L 9.936 12.827 C 11.173 12.823 11.587 11.586 10.759 10.759 C 9.932 9.931 11.587 8.276 13.656 10.345 C 14.75 11.408 15.253 12.941 15.001 14.445 L 15.001 14.445 Z " fill="rgb(44,47,56)"/><path d=" M 15.125 4.585 C 14.983 4.73 14.901 4.924 14.897 5.127 L 14.897 5.3 C 14.827 4.994 14.525 4.651 13.805 4.651 C 13.455 4.645 13.111 4.746 12.82 4.94 C 12.579 5.094 12.428 5.355 12.414 5.64 L 12.414 5.441 C 12.414 5.073 12.137 4.552 11.31 4.552 C 10.958 4.546 10.614 4.661 10.337 4.878 C 10.088 5.064 9.939 5.354 9.932 5.665 C 9.924 5.354 9.775 5.064 9.526 4.878 C 9.249 4.661 8.906 4.546 8.554 4.552 C 7.726 4.552 7.449 5.073 7.449 5.441 L 7.449 5.64 C 7.435 5.355 7.284 5.094 7.043 4.94 C 6.752 4.746 6.409 4.645 6.058 4.651 C 5.338 4.651 5.036 4.994 4.966 5.3 L 4.966 4.928 C 4.964 4.783 4.914 4.642 4.825 4.527 L 4.875 4.489 L 4.883 4.489 C 5.256 4.219 5.652 3.982 6.067 3.782 C 6.071 3.782 6.071 3.778 6.075 3.778 C 8.512 2.603 11.351 2.603 13.788 3.778 C 13.792 3.778 13.792 3.782 13.796 3.782 C 14.211 3.982 14.607 4.219 14.98 4.489 L 14.988 4.489 C 15.034 4.523 15.079 4.556 15.125 4.585 L 15.125 4.585 Z " fill="rgb(251,123,118)"/><g><path d=" M 9.932 5.251 L 9.932 6.587 C 9.9 6.861 9.656 7.06 9.381 7.034 L 7.999 7.034 C 7.725 7.06 7.48 6.861 7.449 6.587 L 7.449 5.027 C 7.449 4.659 7.726 4.138 8.554 4.138 C 8.906 4.132 9.249 4.248 9.526 4.465 C 9.775 4.65 9.924 4.94 9.932 5.251 L 9.932 5.251 Z  M 7.449 5.226 L 7.449 6.364 C 7.449 6.612 7.167 6.811 6.824 6.811 L 5.574 6.811 C 5.227 6.811 4.95 6.612 4.95 6.364 L 4.95 5.954 C 4.961 5.922 4.967 5.889 4.966 5.855 L 4.966 4.887 C 5.036 4.58 5.338 4.237 6.058 4.237 C 6.408 4.231 6.752 4.332 7.043 4.527 C 7.284 4.68 7.435 4.941 7.449 5.226 L 7.449 5.226 Z  M 12.414 5.027 L 12.414 6.587 C 12.383 6.861 12.139 7.06 11.864 7.034 L 10.482 7.034 C 10.208 7.06 9.963 6.861 9.932 6.587 L 9.932 5.251 C 9.939 4.94 10.088 4.65 10.337 4.465 C 10.614 4.248 10.958 4.132 11.31 4.138 C 12.137 4.138 12.414 4.659 12.414 5.027 Z  M 14.914 5.954 L 14.914 6.364 C 14.914 6.612 14.637 6.811 14.289 6.811 L 13.039 6.811 C 12.696 6.811 12.414 6.612 12.414 6.364 L 12.414 5.226 C 12.428 4.941 12.579 4.68 12.82 4.527 C 13.111 4.332 13.455 4.231 13.805 4.237 C 14.525 4.237 14.827 4.58 14.897 4.887 L 14.897 5.855 C 14.897 5.889 14.902 5.922 14.914 5.954 L 14.914 5.954 Z " fill="rgb(250,193,118)"/></g><path d=" M 16.408 1.605 C 13.383 -1.407 9.932 0.745 9.932 0.745 C 9.932 0.745 6.481 -1.407 3.456 1.605 C -0.451 5.507 -0.86 12.803 1.3 18.401 C 3.46 24 9.932 24 9.932 24 C 9.932 24 16.408 24 18.563 18.401 C 20.719 12.803 20.314 5.507 16.408 1.605 L 16.408 1.605 Z  M 17.794 13.655 C 17.599 14.764 17.198 15.827 16.61 16.788 C 15.201 19.146 12.682 20.618 9.936 20.69 L 9.928 20.69 C 7.181 20.618 4.662 19.146 3.253 16.788 C 2.665 15.827 2.264 14.764 2.069 13.655 C 1.594 11.044 1.937 8.569 2.938 6.699 C 3.243 6.122 3.627 5.591 4.081 5.123 L 4.101 5.102 L 4.109 5.094 C 4.335 4.889 4.574 4.699 4.825 4.527 L 4.875 4.489 L 4.883 4.489 C 5.256 4.219 5.652 3.982 6.067 3.782 C 6.071 3.782 6.071 3.778 6.075 3.778 C 8.512 2.603 11.351 2.603 13.788 3.778 C 13.792 3.778 13.792 3.782 13.796 3.782 C 14.211 3.982 14.607 4.219 14.98 4.489 L 14.988 4.489 C 15.034 4.523 15.079 4.556 15.125 4.585 C 15.343 4.743 15.553 4.913 15.754 5.094 L 15.762 5.102 L 15.783 5.123 C 16.236 5.592 16.621 6.122 16.925 6.699 C 17.926 8.569 18.27 11.044 17.794 13.655 L 17.794 13.655 Z " fill="rgb(223,77,96)"/><path d=" M 9.932 5.665 L 9.932 7.001 C 9.9 7.275 9.656 7.474 9.381 7.448 L 7.999 7.448 C 7.725 7.474 7.48 7.275 7.449 7.001 L 7.449 5.441 C 7.449 5.073 7.726 4.552 8.554 4.552 C 8.906 4.546 9.249 4.661 9.526 4.878 C 9.775 5.064 9.924 5.354 9.932 5.665 L 9.932 5.665 Z  M 7.449 5.64 L 7.449 6.778 C 7.449 7.026 7.167 7.225 6.824 7.225 L 5.574 7.225 C 5.227 7.225 4.95 7.026 4.95 6.778 L 4.95 6.368 C 4.961 6.336 4.967 6.303 4.966 6.269 L 4.966 5.3 C 5.036 4.994 5.338 4.651 6.058 4.651 C 6.409 4.645 6.752 4.746 7.043 4.94 C 7.284 5.094 7.435 5.355 7.449 5.64 L 7.449 5.64 Z  M 12.414 5.441 L 12.414 7.001 C 12.383 7.275 12.139 7.474 11.864 7.448 L 10.482 7.448 C 10.208 7.474 9.963 7.275 9.932 7.001 L 9.932 5.665 C 9.939 5.354 10.088 5.064 10.337 4.878 C 10.614 4.661 10.958 4.546 11.31 4.552 C 12.137 4.552 12.414 5.073 12.414 5.441 L 12.414 5.441 Z  M 14.914 6.368 L 14.914 6.778 C 14.914 7.026 14.637 7.225 14.289 7.225 L 13.039 7.225 C 12.696 7.225 12.414 7.026 12.414 6.778 L 12.414 5.64 C 12.428 5.355 12.579 5.094 12.82 4.94 C 13.111 4.746 13.455 4.645 13.805 4.651 C 14.525 4.651 14.827 4.994 14.897 5.3 L 14.897 6.269 C 14.897 6.303 14.902 6.336 14.914 6.368 L 14.914 6.368 Z " fill="rgb(245,239,202)"/><path d=" M 16.925 6.699 C 16.874 6.708 16.823 6.712 16.772 6.711 L 15.522 6.711 C 15.268 6.734 15.026 6.597 14.914 6.368 L 14.914 5.441 C 14.914 5.394 14.909 5.347 14.897 5.3 L 14.897 5.127 C 14.901 4.924 14.983 4.73 15.125 4.585 C 15.343 4.743 15.553 4.913 15.754 5.094 L 15.762 5.102 L 15.783 5.123 C 16.236 5.592 16.621 6.122 16.925 6.699 L 16.925 6.699 Z  M 4.966 4.928 L 4.966 5.3 C 4.955 5.346 4.949 5.394 4.95 5.441 L 4.95 6.368 C 4.837 6.597 4.596 6.734 4.341 6.711 L 3.092 6.711 C 3.04 6.712 2.989 6.708 2.939 6.699 C 3.243 6.122 3.627 5.591 4.081 5.123 L 4.101 5.102 L 4.109 5.094 C 4.335 4.889 4.574 4.699 4.825 4.527 C 4.914 4.642 4.964 4.783 4.966 4.928 L 4.966 4.928 Z " fill="rgb(249,234,176)"/><path d=" M 10.345 19.448 C 10.117 19.448 9.932 19.263 9.932 19.035 C 9.932 18.644 9.111 18.621 9.104 18.621 C 8.875 18.621 8.69 18.435 8.69 18.207 C 8.69 17.978 8.875 17.793 9.104 17.793 C 9.676 17.793 10.759 18.052 10.759 19.034 C 10.759 19.263 10.574 19.448 10.345 19.448 L 10.345 19.448 Z " fill="rgb(255,83,100)"/><path d=" M 9.518 17.379 C 9.289 17.379 9.104 17.194 9.104 16.966 C 9.104 15.984 10.187 15.724 10.759 15.724 C 10.986 15.726 11.169 15.911 11.169 16.138 C 11.169 16.365 10.986 16.549 10.759 16.552 C 10.743 16.552 9.932 16.577 9.932 16.966 C 9.932 17.194 9.746 17.379 9.518 17.379 L 9.518 17.379 Z " fill="rgb(251,123,118)"/></g><path d=" M 40.656 14.8 L 40.656 14.8 Q 40.656 15.948 40.18 16.928 L 40.18 16.928 L 40.18 16.928 Q 39.704 17.908 38.892 18.706 L 38.892 18.706 L 38.892 18.706 Q 38.08 19.504 37.002 20.106 L 37.002 20.106 L 37.002 20.106 Q 35.924 20.708 34.734 21.114 L 34.734 21.114 L 34.734 21.114 Q 33.544 21.52 32.298 21.73 L 32.298 21.73 L 32.298 21.73 Q 31.052 21.94 29.904 21.94 L 29.904 21.94 L 29.904 21.94 Q 28.868 21.94 27.972 21.772 L 27.972 21.772 L 27.972 21.772 Q 29.316 16.872 30.114 11.902 L 30.114 11.902 L 30.114 11.902 Q 30.912 6.932 31.64 1.892 L 31.64 1.892 L 31.64 1.892 Q 33.096 1.584 34.664 1.346 L 34.664 1.346 L 34.664 1.346 Q 36.232 1.108 37.912 1.108 L 37.912 1.108 L 37.912 1.108 Q 38.612 1.108 39.396 1.276 L 39.396 1.276 L 39.396 1.276 Q 40.18 1.444 40.824 1.892 L 40.824 1.892 L 40.824 1.892 Q 41.468 2.34 41.902 3.068 L 41.902 3.068 L 41.902 3.068 Q 42.336 3.796 42.336 4.916 L 42.336 4.916 L 42.336 4.916 Q 42.336 5.98 41.986 6.904 L 41.986 6.904 L 41.986 6.904 Q 41.636 7.828 41.09 8.584 L 41.09 8.584 L 41.09 8.584 Q 40.544 9.34 39.844 9.886 L 39.844 9.886 L 39.844 9.886 Q 39.144 10.432 38.416 10.712 L 38.416 10.712 L 38.416 10.712 Q 38.78 10.908 39.172 11.272 L 39.172 11.272 L 39.172 11.272 Q 39.564 11.636 39.9 12.126 L 39.9 12.126 L 39.9 12.126 Q 40.236 12.616 40.446 13.288 L 40.446 13.288 L 40.446 13.288 Q 40.656 13.96 40.656 14.8 L 40.656 14.8 L 40.656 14.8 Z  M 34.244 11.888 L 34.244 11.888 Q 34.132 12.56 34.034 13.078 L 34.034 13.078 L 34.034 13.078 Q 33.936 13.596 33.852 14.072 L 33.852 14.072 L 33.852 14.072 Q 33.768 14.548 33.67 15.066 L 33.67 15.066 L 33.67 15.066 Q 33.572 15.584 33.46 16.284 L 33.46 16.284 L 33.46 16.284 Q 33.992 16.228 34.664 16.088 L 34.664 16.088 L 34.664 16.088 Q 35.336 15.948 35.952 15.654 L 35.952 15.654 L 35.952 15.654 Q 36.568 15.36 36.988 14.87 L 36.988 14.87 L 36.988 14.87 Q 37.408 14.38 37.408 13.68 L 37.408 13.68 L 37.408 13.68 Q 37.408 13.176 37.142 12.84 L 37.142 12.84 L 37.142 12.84 Q 36.876 12.504 36.47 12.28 L 36.47 12.28 L 36.47 12.28 Q 36.064 12.056 35.588 11.958 L 35.588 11.958 L 35.588 11.958 Q 35.112 11.86 34.692 11.86 L 34.692 11.86 L 34.692 11.86 Q 34.552 11.86 34.454 11.86 L 34.454 11.86 L 34.454 11.86 Q 34.356 11.86 34.244 11.888 L 34.244 11.888 L 34.244 11.888 Z  M 35.504 5.112 L 35.504 5.112 Q 35.448 5.42 35.378 5.84 L 35.378 5.84 L 35.378 5.84 Q 35.308 6.26 35.224 6.722 L 35.224 6.722 L 35.224 6.722 Q 35.14 7.184 35.042 7.632 L 35.042 7.632 L 35.042 7.632 Q 34.944 8.08 34.888 8.416 L 34.888 8.416 L 34.888 8.416 Q 35.504 8.304 36.12 8.108 L 36.12 8.108 L 36.12 8.108 Q 36.736 7.912 37.226 7.674 L 37.226 7.674 L 37.226 7.674 Q 37.716 7.436 38.01 7.156 L 38.01 7.156 L 38.01 7.156 Q 38.304 6.876 38.304 6.54 L 38.304 6.54 L 38.304 6.54 Q 38.304 6.12 38.052 5.854 L 38.052 5.854 L 38.052 5.854 Q 37.8 5.588 37.394 5.42 L 37.394 5.42 L 37.394 5.42 Q 36.988 5.252 36.554 5.182 L 36.554 5.182 L 36.554 5.182 Q 36.12 5.112 35.784 5.112 L 35.784 5.112 L 35.504 5.112 L 35.504 5.112 Z  M 51.632 16.368 L 51.632 16.368 Q 51.24 17.964 50.526 19.084 L 50.526 19.084 L 50.526 19.084 Q 49.812 20.204 48.846 20.932 L 48.846 20.932 L 48.846 20.932 Q 47.88 21.66 46.788 21.996 L 46.788 21.996 L 46.788 21.996 Q 45.696 22.332 44.604 22.332 L 44.604 22.332 L 44.604 22.332 Q 43.96 22.332 43.288 22.122 L 43.288 22.122 L 43.288 22.122 Q 42.616 21.912 42.084 21.492 L 42.084 21.492 L 42.084 21.492 Q 41.552 21.072 41.202 20.428 L 41.202 20.428 L 41.202 20.428 Q 40.852 19.784 40.852 18.916 L 40.852 18.916 L 40.852 18.916 Q 40.852 18.804 40.852 18.692 L 40.852 18.692 L 40.852 18.692 Q 40.852 18.58 40.88 18.468 L 40.88 18.468 L 40.88 18.468 Q 40.992 17.32 41.244 15.696 L 41.244 15.696 L 41.244 15.696 Q 41.496 14.072 41.776 12.308 L 41.776 12.308 L 41.776 12.308 Q 42.056 10.544 42.392 8.766 L 42.392 8.766 L 42.392 8.766 Q 42.728 6.988 42.994 5.532 L 42.994 5.532 L 42.994 5.532 Q 43.26 4.076 43.456 3.11 L 43.456 3.11 L 43.456 3.11 Q 43.652 2.144 43.708 1.92 L 43.708 1.92 L 43.708 1.92 Q 44.296 1.864 45.108 1.78 L 45.108 1.78 L 45.108 1.78 Q 45.92 1.696 46.62 1.64 L 46.62 1.64 L 46.62 1.64 Q 47.488 1.556 48.328 1.472 L 48.328 1.472 L 48.328 1.472 Q 47.6 4.86 47.04 7.604 L 47.04 7.604 L 47.04 7.604 Q 46.788 8.78 46.55 9.956 L 46.55 9.956 L 46.55 9.956 Q 46.312 11.132 46.102 12.112 L 46.102 12.112 L 46.102 12.112 Q 45.892 13.092 45.738 13.806 L 45.738 13.806 L 45.738 13.806 Q 45.584 14.52 45.486 14.968 L 45.486 14.968 L 45.486 14.968 Q 45.388 15.416 45.262 16.102 L 45.262 16.102 L 45.262 16.102 Q 45.136 16.788 45.136 17.348 L 45.136 17.348 L 45.136 17.348 Q 45.136 17.796 45.36 18.09 L 45.36 18.09 L 45.36 18.09 Q 45.584 18.384 45.92 18.384 L 45.92 18.384 L 45.92 18.384 Q 46.396 18.384 46.704 18.006 L 46.704 18.006 L 46.704 18.006 Q 47.012 17.628 47.222 17.096 L 47.222 17.096 L 47.222 17.096 Q 47.432 16.564 47.53 16.018 L 47.53 16.018 L 47.53 16.018 Q 47.628 15.472 47.712 15.164 L 47.712 15.164 L 47.712 15.164 Q 47.88 14.352 48.09 13.358 L 48.09 13.358 L 48.09 13.358 Q 48.3 12.364 48.51 11.286 L 48.51 11.286 L 48.51 11.286 Q 48.72 10.208 48.93 9.088 L 48.93 9.088 L 48.93 9.088 Q 49.14 7.968 49.336 6.904 L 49.336 6.904 L 49.336 6.904 Q 49.812 4.44 50.26 1.808 L 50.26 1.808 L 54.516 1.528 L 54.516 1.528 Q 54.516 1.528 54.376 2.256 L 54.376 2.256 L 54.376 2.256 Q 54.236 2.984 54.012 4.188 L 54.012 4.188 L 54.012 4.188 Q 53.788 5.392 53.522 6.932 L 53.522 6.932 L 53.522 6.932 Q 53.256 8.472 52.92 10.138 L 52.92 10.138 L 52.92 10.138 Q 52.584 11.804 52.262 13.414 L 52.262 13.414 L 52.262 13.414 Q 51.94 15.024 51.632 16.368 L 51.632 16.368 L 51.632 16.368 Z  M 56.448 21.184 L 51.912 21.856 L 51.912 21.856 Q 52.752 17.936 53.48 14.24 L 53.48 14.24 L 53.48 14.24 Q 53.76 12.644 54.068 10.936 L 54.068 10.936 L 54.068 10.936 Q 54.376 9.228 54.642 7.548 L 54.642 7.548 L 54.642 7.548 Q 54.908 5.868 55.118 4.286 L 55.118 4.286 L 55.118 4.286 Q 55.328 2.704 55.44 1.416 L 55.44 1.416 L 55.44 1.416 Q 56.084 1.472 56.896 1.514 L 56.896 1.514 L 56.896 1.514 Q 57.708 1.556 58.408 1.612 L 58.408 1.612 L 58.408 1.612 Q 59.248 1.668 60.088 1.668 L 60.088 1.668 L 60.088 1.668 Q 60.06 1.78 60.004 2.088 L 60.004 2.088 L 60.004 2.088 Q 59.948 2.396 59.864 2.83 L 59.864 2.83 L 59.864 2.83 Q 59.78 3.264 59.682 3.796 L 59.682 3.796 L 59.682 3.796 Q 59.584 4.328 59.472 4.86 L 59.472 4.86 L 59.472 4.86 Q 59.248 6.092 58.968 7.632 L 58.968 7.632 L 59.136 7.604 L 59.136 7.604 Q 59.416 7.156 59.934 6.358 L 59.934 6.358 L 59.934 6.358 Q 60.452 5.56 61.012 4.664 L 61.012 4.664 L 61.012 4.664 Q 61.572 3.768 62.104 2.942 L 62.104 2.942 L 62.104 2.942 Q 62.636 2.116 63 1.528 L 63 1.528 L 63 1.528 Q 64.4 1.416 65.8 1.276 L 65.8 1.276 L 65.8 1.276 Q 67.2 1.136 68.6 0.912 L 68.6 0.912 L 68.6 0.912 Q 67.284 2.676 66.052 4.384 L 66.052 4.384 L 66.052 4.384 Q 65.52 5.112 64.974 5.896 L 64.974 5.896 L 64.974 5.896 Q 64.428 6.68 63.896 7.436 L 63.896 7.436 L 63.896 7.436 Q 63.364 8.192 62.902 8.892 L 62.902 8.892 L 62.902 8.892 Q 62.44 9.592 62.076 10.18 L 62.076 10.18 L 62.076 10.18 Q 62.692 13.008 63.532 15.64 L 63.532 15.64 L 63.532 15.64 Q 64.372 18.272 65.24 21.016 L 65.24 21.016 L 65.24 21.016 Q 64.596 20.988 63.924 20.974 L 63.924 20.974 L 63.924 20.974 Q 63.252 20.96 62.608 20.96 L 62.608 20.96 L 62.608 20.96 Q 61.796 20.96 61.04 20.974 L 61.04 20.974 L 61.04 20.974 Q 60.284 20.988 59.472 21.016 L 59.472 21.016 L 59.472 21.016 Q 59.22 19.196 58.926 17.194 L 58.926 17.194 L 58.926 17.194 Q 58.632 15.192 58.38 13.372 L 58.38 13.372 L 57.876 13.96 L 57.876 13.96 Q 57.68 14.8 57.442 16.032 L 57.442 16.032 L 57.442 16.032 Q 57.204 17.264 56.98 18.412 L 56.98 18.412 L 56.98 18.412 Q 56.728 19.756 56.448 21.184 L 56.448 21.184 L 56.448 21.184 Z  M 74.956 21.268 L 74.956 21.268 Q 74.256 21.38 73.416 21.52 L 73.416 21.52 L 73.416 21.52 Q 72.576 21.66 71.904 21.772 L 71.904 21.772 L 71.904 21.772 Q 72.016 20.848 72.128 19.952 L 72.128 19.952 L 72.128 19.952 Q 72.212 19.168 72.282 18.384 L 72.282 18.384 L 72.282 18.384 Q 72.352 17.6 72.408 17.04 L 72.408 17.04 L 69.972 17.04 L 68.852 21.072 L 68.852 21.072 Q 68.236 21.156 67.396 21.254 L 67.396 21.254 L 67.396 21.254 Q 66.556 21.352 65.828 21.436 L 65.828 21.436 L 65.828 21.436 Q 64.932 21.548 64.064 21.66 L 64.064 21.66 L 64.064 21.66 Q 65.184 17.936 66.276 14.324 L 66.276 14.324 L 66.276 14.324 Q 66.724 12.812 67.214 11.16 L 67.214 11.16 L 67.214 11.16 Q 67.704 9.508 68.194 7.87 L 68.194 7.87 L 68.194 7.87 Q 68.684 6.232 69.132 4.72 L 69.132 4.72 L 69.132 4.72 Q 69.58 3.208 69.916 1.948 L 69.916 1.948 L 69.916 1.948 Q 71.82 1.808 73.794 1.612 L 73.794 1.612 L 73.794 1.612 Q 75.768 1.416 77.644 1.08 L 77.644 1.08 L 77.644 1.08 Q 77.56 1.976 77.462 3.306 L 77.462 3.306 L 77.462 3.306 Q 77.364 4.636 77.28 6.204 L 77.28 6.204 L 77.28 6.204 Q 77.196 7.772 77.112 9.48 L 77.112 9.48 L 77.112 9.48 Q 77.028 11.188 76.944 12.84 L 76.944 12.84 L 76.944 12.84 Q 76.804 16.704 76.636 21.044 L 76.636 21.044 L 76.636 21.044 Q 75.796 21.184 74.956 21.268 L 74.956 21.268 L 74.956 21.268 Z  M 72.38 7.212 L 70.644 14.24 L 70.644 14.24 Q 70.756 14.24 71.05 14.226 L 71.05 14.226 L 71.05 14.226 Q 71.344 14.212 71.666 14.198 L 71.666 14.198 L 71.666 14.198 Q 71.988 14.184 72.268 14.17 L 72.268 14.17 L 72.268 14.17 Q 72.548 14.156 72.66 14.128 L 72.66 14.128 L 72.66 14.128 Q 72.66 13.96 72.702 13.554 L 72.702 13.554 L 72.702 13.554 Q 72.744 13.148 72.786 12.63 L 72.786 12.63 L 72.786 12.63 Q 72.828 12.112 72.884 11.496 L 72.884 11.496 L 72.884 11.496 Q 72.94 10.88 72.996 10.292 L 72.996 10.292 L 72.996 10.292 Q 73.108 8.864 73.276 7.212 L 73.276 7.212 L 73.444 4.776 L 73.024 4.804 L 72.38 7.212 L 72.38 7.212 Z " fill="rgb(255,255,255)"/></svg>